<svg width="2500" height="2500" viewBox="0 0 2500 2500" fill="none" xmlns="http://www.w3.org/2000/svg">
<path d="M2500 1249.01C2500 1940.03 1940.03 2498.01 1250.99 2498.01C559.968 2500 0 1940.03 0 1249.01C0 559.968 559.968 0 1249.01 0C1940.03 0 2500 559.968 2500 1249.01Z" fill="#FF6602"/>
<path d="M917.395 1014.69C917.395 982.923 921.366 955.123 929.309 931.295C937.252 907.466 951.152 885.624 969.023 869.738C986.894 853.852 1008.74 839.952 1038.52 832.01C1066.32 824.067 1100.08 818.11 1139.79 818.11C1179.51 818.11 1213.26 822.081 1241.06 832.01C1268.86 839.952 1292.69 853.852 1310.56 869.738C1328.44 885.624 1342.34 907.466 1350.28 931.295C1358.22 955.123 1362.19 984.909 1362.19 1014.69C1362.19 1046.47 1358.22 1074.27 1350.28 1100.08C1342.34 1123.91 1328.44 1145.75 1310.56 1161.64C1292.69 1177.52 1268.86 1191.42 1241.06 1199.36C1213.26 1207.31 1179.51 1213.26 1139.79 1213.26C1100.08 1213.26 1066.32 1209.29 1038.52 1199.36C1010.72 1191.42 986.894 1177.52 969.023 1161.64C951.152 1145.75 937.252 1123.91 929.309 1100.08C921.366 1074.27 917.395 1046.47 917.395 1014.69ZM1243.05 1018.67C1243.05 1002.78 1241.06 986.894 1239.08 974.98C1235.11 961.08 1231.14 951.152 1223.19 941.223C1215.25 931.295 1205.32 925.338 1191.42 919.381C1177.52 913.423 1161.64 911.438 1141.78 911.438C1121.92 911.438 1104.05 913.423 1092.14 919.381C1078.24 925.338 1068.31 931.295 1060.37 941.223C1052.42 951.152 1046.47 961.08 1044.48 974.98C1040.51 988.88 1040.51 1002.78 1040.51 1018.67C1040.51 1034.55 1042.49 1050.44 1044.48 1062.35C1046.47 1076.25 1052.42 1086.18 1060.37 1096.11C1068.31 1106.04 1078.24 1113.98 1092.14 1117.95C1106.04 1123.91 1121.92 1125.89 1141.78 1125.89C1161.64 1125.89 1179.51 1123.91 1191.42 1117.95C1203.34 1112.82 1214.13 1105.4 1223.19 1096.11C1231.14 1086.18 1237.09 1074.27 1239.08 1062.35C1241.06 1048.45 1243.05 1034.55 1243.05 1018.67ZM1399.92 1014.69C1399.92 982.923 1403.89 955.123 1411.83 931.295C1419.78 907.466 1433.68 885.624 1451.55 869.738C1469.42 853.852 1493.25 839.952 1521.05 832.01C1548.85 824.067 1582.61 818.11 1622.32 818.11C1662.03 818.11 1695.79 822.081 1723.59 832.01C1751.39 839.952 1775.22 853.852 1793.09 869.738C1810.96 885.624 1824.86 907.466 1832.8 931.295C1840.75 955.123 1844.72 984.909 1844.72 1014.69C1844.72 1046.47 1840.75 1074.27 1832.8 1100.08C1824.86 1123.91 1810.96 1145.75 1793.09 1161.64C1775.22 1177.52 1751.39 1191.42 1723.59 1199.36C1695.79 1207.31 1662.03 1213.26 1622.32 1213.26C1582.61 1213.26 1548.85 1209.29 1521.05 1199.36C1493.25 1191.42 1469.42 1177.52 1451.55 1161.64C1433.68 1145.75 1419.78 1123.91 1411.83 1100.08C1403.89 1074.27 1399.92 1046.47 1399.92 1014.69ZM1723.59 1018.67C1723.59 1002.78 1721.6 986.894 1719.62 974.98C1715.65 961.08 1711.68 951.152 1703.73 941.223C1695.79 931.295 1685.86 925.338 1671.96 919.381C1658.06 913.423 1642.18 911.438 1622.32 911.438C1602.46 911.438 1584.59 913.423 1572.68 919.381C1558.78 925.338 1548.85 931.295 1540.91 941.223C1532.96 951.152 1527.01 961.08 1525.02 974.98C1521.05 988.88 1521.05 1002.78 1521.05 1018.67C1521.05 1034.55 1523.03 1050.44 1525.02 1062.35C1527.01 1076.25 1532.96 1086.18 1540.91 1096.11C1548.85 1106.04 1558.78 1113.98 1572.68 1117.95C1586.58 1123.91 1602.46 1125.89 1622.32 1125.89C1642.18 1125.89 1660.05 1123.91 1671.96 1117.95C1683.88 1112.82 1694.67 1105.4 1703.73 1096.11C1711.68 1086.18 1717.63 1074.27 1719.62 1062.35C1723.59 1048.45 1723.59 1034.55 1723.59 1018.67ZM2021.45 1113.98C2025.42 1117.95 2027.4 1121.92 2027.4 1125.89V1195.39C2027.4 1199.36 2025.42 1203.34 2021.45 1207.31C2017.47 1211.28 2013.5 1211.28 2007.55 1211.28H1902.3C1896.35 1211.28 1890.39 1209.29 1886.42 1205.32C1882.45 1201.35 1880.46 1197.38 1880.46 1191.42V714.853C1880.46 710.882 1882.45 706.91 1886.42 702.939C1890.39 698.968 1894.36 698.968 1900.32 698.968H1979.75C1985.7 698.968 1989.67 700.953 1993.65 702.939C1997.62 706.91 1999.6 710.882 1999.6 714.853V1110.01H2011.52C2013.5 1108.02 2017.47 1110.01 2021.45 1113.98ZM1151.71 1695.79C1155.68 1699.76 1157.66 1703.73 1157.66 1707.7V1781.18C1157.66 1787.13 1155.68 1791.1 1151.71 1795.08C1147.74 1799.05 1143.76 1801.03 1137.81 1801.03H1028.59C1022.64 1801.03 1016.68 1799.05 1012.71 1795.08C1008.74 1791.1 1006.75 1787.13 1006.75 1781.18V1278.79C1006.75 1274.82 1008.74 1270.85 1012.71 1266.88C1016.68 1262.91 1020.65 1260.92 1026.61 1260.92H1110.01C1115.97 1260.92 1119.94 1262.91 1123.91 1266.88C1127.88 1270.85 1129.86 1274.82 1129.86 1278.79V1691.82H1141.78C1143.76 1691.82 1147.74 1693.8 1151.71 1695.79ZM887.609 1131.85L857.824 1092.14C853.852 1088.17 849.881 1086.18 845.909 1084.19C841.938 1084.19 835.981 1086.18 832.01 1088.17C824.067 1094.12 794.281 1121.92 712.867 1121.92C653.296 1121.92 583.797 1090.15 583.797 1012.71C583.797 937.252 659.253 903.495 712.867 903.495C790.31 903.495 824.067 933.28 832.01 937.252C835.981 941.223 841.938 943.209 845.909 941.223C849.881 941.223 853.852 939.238 857.824 933.28L887.609 893.566C893.566 893.566 893.566 893.566 895.552 891.581C907.466 877.681 885.623 863.781 883.638 863.781C869.738 853.852 861.795 849.881 849.881 843.924C837.967 837.967 826.052 832.01 812.152 830.024C798.253 826.052 784.353 824.067 768.467 822.081C752.581 820.095 734.71 820.095 712.867 820.095C665.21 820.095 627.482 826.052 597.697 835.981C567.911 847.895 470.612 891.581 470.612 1012.71C470.612 1139.79 567.911 1187.45 597.697 1199.36C627.482 1211.28 667.196 1215.25 712.867 1215.25C734.71 1215.25 752.581 1215.25 768.467 1213.26C784.353 1211.28 798.253 1209.29 812.152 1205.32C826.052 1201.35 837.967 1197.38 849.881 1191.42C861.795 1185.46 869.738 1181.49 883.638 1171.56C883.638 1171.56 905.48 1157.66 895.552 1143.76C893.566 1137.81 893.566 1137.81 887.609 1131.85ZM496.426 1785.15C496.426 1791.1 498.411 1795.08 502.383 1797.06C506.354 1801.03 510.326 1803.02 516.283 1803.02C516.283 1803.02 609.611 1803.02 613.582 1801.03C617.554 1801.03 619.539 1797.06 619.539 1793.09V1781.18C635.425 1787.13 653.296 1793.09 673.153 1797.06C693.01 1801.03 714.853 1803.02 740.667 1803.02C782.367 1803.02 818.11 1799.05 845.909 1789.12C875.695 1779.19 899.523 1767.28 917.395 1749.4C935.266 1731.53 949.166 1711.68 957.109 1685.86C965.052 1660.05 969.023 1630.26 969.023 1598.49C969.023 1564.73 965.052 1534.95 957.109 1511.12C949.166 1485.31 935.266 1463.46 917.395 1445.59C899.523 1427.72 875.695 1415.81 845.909 1405.88C816.124 1395.95 780.381 1391.98 738.681 1391.98C714.853 1391.98 693.01 1393.96 673.153 1395.95C653.296 1399.92 637.411 1403.89 621.525 1409.85V1282.76V1278.79C621.525 1274.82 619.539 1270.85 615.568 1266.88C611.596 1262.91 607.625 1260.92 601.668 1260.92H518.268C512.311 1260.92 508.34 1262.91 504.368 1266.88C500.397 1270.85 498.411 1274.82 498.411 1278.79L496.426 1785.15ZM839.952 1646.15C835.981 1660.05 830.024 1671.96 822.081 1679.9C814.138 1689.83 802.224 1697.78 788.324 1701.75C774.424 1707.7 756.553 1709.69 736.696 1709.69C714.853 1709.69 698.967 1707.7 685.067 1701.75C671.168 1695.79 659.253 1689.83 651.311 1679.9C643.368 1669.98 637.411 1658.06 633.439 1646.15C629.468 1632.25 627.482 1618.35 627.482 1600.48C627.482 1584.59 629.468 1568.71 633.439 1554.81C637.411 1540.91 643.368 1528.99 651.311 1519.06C659.253 1509.13 671.168 1501.19 685.067 1495.23C698.967 1489.28 716.839 1487.29 736.696 1487.29C758.538 1487.29 776.41 1489.28 788.324 1495.23C802.224 1501.19 812.152 1509.13 822.081 1519.06C830.024 1528.99 835.981 1540.91 839.952 1554.81C843.924 1568.71 845.909 1584.59 845.909 1600.48C845.909 1618.35 843.924 1632.25 839.952 1646.15ZM1568.71 1395.95C1572.68 1399.92 1574.66 1403.89 1574.66 1407.86V1602.46C1574.66 1636.22 1572.68 1667.99 1566.72 1691.82C1560.76 1717.63 1550.83 1737.49 1536.93 1753.38C1523.03 1769.26 1503.18 1781.18 1477.36 1789.12C1451.55 1797.06 1419.78 1801.03 1382.05 1801.03C1342.34 1801.03 1310.56 1797.06 1286.74 1789.12C1260.92 1781.18 1241.06 1769.26 1227.16 1753.38C1213.26 1737.49 1203.34 1717.63 1197.38 1691.82C1191.42 1667.99 1189.44 1636.22 1189.44 1602.46V1409.85C1189.44 1405.88 1191.42 1401.91 1195.39 1397.93C1199.36 1393.96 1203.34 1391.98 1209.29 1391.98H1282.76C1288.72 1391.98 1292.69 1393.96 1296.66 1397.93C1300.64 1401.91 1302.62 1405.88 1302.62 1409.85V1646.15C1302.62 1658.06 1306.59 1667.99 1312.55 1675.93C1318.51 1683.88 1326.45 1691.82 1336.38 1695.79C1348.29 1699.76 1362.19 1703.73 1382.05 1703.73C1401.91 1703.73 1417.79 1701.75 1427.72 1695.79C1437.65 1691.82 1447.58 1683.88 1451.55 1675.93C1457.51 1667.99 1459.49 1656.08 1461.48 1644.16C1461.48 1632.25 1463.46 1618.35 1463.46 1604.45V1409.85C1463.46 1405.88 1465.45 1401.91 1469.42 1397.93C1473.39 1393.96 1477.36 1391.98 1483.32 1391.98H1556.79C1560.76 1391.98 1564.73 1393.96 1568.71 1395.95ZM1727.56 1556.79C1729.55 1544.88 1731.53 1532.96 1735.5 1525.02C1739.48 1515.09 1745.43 1507.15 1753.38 1501.19C1761.32 1495.23 1771.25 1489.28 1785.15 1485.31C1797.06 1481.33 1812.95 1479.35 1832.8 1479.35C1850.68 1479.35 1866.56 1481.33 1878.47 1485.31C1890.39 1489.28 1898.33 1495.23 1904.29 1501.19C1910.25 1507.15 1914.22 1517.08 1916.2 1525.02C1918.19 1534.95 1920.17 1544.88 1920.17 1556.79H1799.05C1789.12 1556.79 1789.12 1566.72 1789.12 1566.72V1626.29C1789.12 1626.29 1789.12 1634.23 1799.05 1634.23H2029.39V1570.69C2029.39 1550.83 2027.4 1530.98 2023.43 1513.11C2019.46 1495.23 2013.5 1477.36 2005.56 1463.46C1997.62 1447.58 1985.7 1435.66 1971.8 1425.73C1957.9 1415.81 1938.05 1405.88 1916.2 1399.92C1894.36 1393.96 1866.56 1391.98 1834.79 1391.98C1789.12 1391.98 1751.39 1397.93 1721.6 1407.86C1691.82 1419.78 1669.98 1433.68 1652.1 1453.53C1636.22 1471.41 1624.3 1493.25 1618.35 1519.06C1612.39 1542.89 1608.42 1570.69 1608.42 1596.51C1608.42 1624.31 1612.39 1652.1 1618.35 1675.93C1624.3 1699.76 1636.22 1721.6 1652.1 1741.46C1667.99 1759.33 1691.82 1775.22 1721.6 1785.15C1751.39 1795.08 1789.12 1801.03 1836.78 1801.03C1858.62 1801.03 1876.49 1801.03 1892.38 1799.05C1908.26 1797.06 1922.16 1795.08 1936.06 1791.1C1949.96 1787.13 1961.87 1783.16 1973.79 1777.2C1985.7 1771.25 1993.65 1767.28 2007.55 1757.35C2007.55 1757.35 2029.39 1743.45 2017.47 1729.55C2015.49 1727.56 2015.49 1727.56 2009.53 1719.62L1979.75 1679.9C1975.77 1675.93 1973.79 1673.95 1967.83 1671.96C1963.86 1671.96 1957.9 1673.95 1953.93 1675.93C1945.99 1681.89 1938.05 1685.86 1930.1 1689.83C1922.16 1693.8 1914.22 1697.78 1906.27 1699.76C1898.33 1703.73 1888.4 1705.72 1876.49 1705.72C1864.58 1707.7 1850.68 1707.7 1834.79 1707.7C1814.93 1707.7 1799.05 1705.72 1785.15 1701.75C1771.25 1697.78 1761.32 1691.82 1753.38 1685.86C1745.43 1677.92 1739.48 1669.98 1733.52 1660.05C1729.55 1650.12 1725.58 1640.19 1723.59 1628.28C1723.59 1600.48 1727.56 1556.79 1727.56 1556.79Z" fill="white"/>
<path d="M1399.92 1014.69C1399.92 982.923 1403.89 955.123 1411.83 931.295C1419.78 907.466 1433.68 885.623 1451.55 869.738C1469.42 853.852 1493.25 839.952 1521.05 832.01C1548.85 824.067 1582.61 818.11 1622.32 818.11C1662.03 818.11 1695.79 822.081 1723.59 832.01C1751.39 839.952 1775.22 853.852 1793.09 869.738C1810.96 885.623 1824.86 907.466 1832.8 931.295C1840.75 955.123 1844.72 984.909 1844.72 1014.69C1844.72 1046.47 1840.75 1074.27 1832.8 1100.08C1824.86 1123.91 1810.96 1145.75 1793.09 1161.64C1775.22 1177.52 1751.39 1191.42 1723.59 1199.36C1695.79 1207.31 1662.03 1213.26 1622.32 1213.26C1582.61 1213.26 1548.85 1209.29 1521.05 1199.36C1493.25 1191.42 1469.42 1177.52 1451.55 1161.64C1433.68 1145.75 1419.78 1123.91 1411.83 1100.08C1403.89 1074.27 1399.92 1046.47 1399.92 1014.69ZM1723.59 1018.67C1723.59 1002.78 1721.6 986.894 1719.62 974.98C1715.65 961.08 1711.68 951.152 1703.73 941.223C1695.79 931.295 1685.86 925.338 1671.96 919.38C1658.06 913.423 1642.18 911.438 1622.32 911.438C1602.46 911.438 1584.59 913.423 1572.68 919.38C1558.78 925.338 1548.85 931.295 1540.91 941.223C1532.96 951.152 1527.01 961.08 1525.02 974.98C1521.05 988.88 1521.05 1002.78 1521.05 1018.67C1521.05 1034.55 1523.03 1050.44 1525.02 1062.35C1527.01 1076.25 1532.96 1086.18 1540.91 1096.11C1548.85 1106.04 1558.78 1113.98 1572.68 1117.95C1586.58 1123.91 1602.46 1125.89 1622.32 1125.89C1642.18 1125.89 1660.05 1123.91 1671.96 1117.95C1683.88 1112.82 1694.67 1105.4 1703.73 1096.11C1711.68 1086.18 1717.63 1074.27 1719.62 1062.35C1723.59 1048.45 1723.59 1034.55 1723.59 1018.67ZM1727.56 1556.79C1729.55 1544.88 1731.53 1532.96 1735.5 1525.02C1739.48 1515.09 1745.43 1507.15 1753.38 1501.19C1761.32 1495.23 1771.25 1489.28 1785.15 1485.31C1797.06 1481.33 1812.95 1479.35 1832.8 1479.35C1850.68 1479.35 1866.56 1481.33 1878.47 1485.31C1890.39 1489.28 1898.33 1495.23 1904.29 1501.19C1910.25 1507.15 1914.22 1517.08 1916.2 1525.02C1918.19 1534.95 1920.17 1544.88 1920.17 1556.79H1799.05C1789.12 1556.79 1789.12 1566.72 1789.12 1566.72V1626.29C1789.12 1626.29 1789.12 1634.23 1799.05 1634.23H2029.39V1570.69C2029.39 1550.83 2027.4 1530.98 2023.43 1513.11C2019.46 1495.23 2013.5 1477.36 2005.56 1463.46C1997.62 1447.58 1985.7 1435.66 1971.8 1425.73C1957.9 1415.81 1938.05 1405.88 1916.2 1399.92C1894.36 1393.96 1866.56 1391.98 1834.79 1391.98C1789.12 1391.98 1751.39 1397.93 1721.6 1407.86C1691.82 1419.78 1669.98 1433.68 1652.1 1453.53C1636.22 1471.41 1624.3 1493.25 1618.35 1519.06C1612.39 1542.89 1608.42 1570.69 1608.42 1596.51C1608.42 1624.3 1612.39 1652.1 1618.35 1675.93C1624.3 1699.76 1636.22 1721.6 1652.1 1741.46C1667.99 1759.33 1691.82 1775.22 1721.6 1785.15C1751.39 1795.08 1789.12 1801.03 1836.78 1801.03C1858.62 1801.03 1876.49 1801.03 1892.37 1799.05C1908.26 1797.06 1922.16 1795.08 1936.06 1791.1C1949.96 1787.13 1961.87 1783.16 1973.79 1777.2C1985.7 1771.25 1993.65 1767.28 2007.55 1757.35C2007.55 1757.35 2029.39 1743.45 2017.47 1729.55C2015.49 1727.56 2015.49 1727.56 2009.53 1719.62L1979.75 1679.9C1975.77 1675.93 1973.79 1673.95 1967.83 1671.96C1963.86 1671.96 1957.9 1673.95 1953.93 1675.93C1945.99 1681.89 1938.05 1685.86 1930.1 1689.83C1922.16 1693.8 1914.22 1697.78 1906.27 1699.76C1898.33 1703.73 1888.4 1705.72 1876.49 1705.72C1864.57 1707.7 1850.67 1707.7 1834.79 1707.7C1814.93 1707.7 1799.05 1705.72 1785.15 1701.75C1771.25 1697.78 1761.32 1691.82 1753.38 1685.86C1745.43 1677.92 1739.48 1669.98 1733.52 1660.05C1729.55 1650.12 1725.58 1640.19 1723.59 1628.28C1723.59 1600.48 1727.56 1556.79 1727.56 1556.79Z" fill="white"/>
<rect x="375" y="584" width="1799" height="662" fill="#FF6602"/>
<path d="M819.5 1157C822.167 1161.33 822.833 1165 821.5 1168C820.5 1170.67 817.667 1172 813 1172H742.5C736.833 1172.33 732.333 1172.33 729 1172C726 1171.67 723.5 1171 721.5 1170C719.5 1169 717.667 1167.67 716 1166C714.667 1164 713 1161.67 711 1159L618.5 1040L616 1043V1158.5C616 1162.83 614.333 1166.5 611 1169.5C608 1172.17 604.167 1173.5 599.5 1173.5H535C530.333 1173.5 526.333 1172.17 523 1169.5C519.667 1166.5 518 1162.83 518 1158.5V702.5C518 698.5 519.667 695 523 692C526.333 689 530.333 687.5 535 687.5H599.5C604.167 687.5 608 689 611 692C614.333 695 616 698.5 616 702.5V918.5L620 914L704 832.5C709.333 826.5 714.167 823 718.5 822C723.167 821 729.667 820.5 738 820.5H805C809.667 820.5 812.5 822 813.5 825C814.833 828 814 831.5 811 835.5L688.5 972L819.5 1157ZM842.707 998C842.707 970 846.207 945.167 853.207 923.5C860.54 901.5 872.04 883.167 887.707 868.5C903.707 853.5 924.04 842.167 948.707 834.5C973.707 826.833 1004.04 823 1039.71 823C1075.04 823 1105.21 826.833 1130.21 834.5C1155.21 842.167 1175.54 853.5 1191.21 868.5C1207.21 883.167 1218.71 901.5 1225.71 923.5C1233.04 945.167 1236.71 970 1236.71 998C1236.71 1026.33 1233.04 1051.5 1225.71 1073.5C1218.71 1095.17 1207.21 1113.5 1191.21 1128.5C1175.54 1143.17 1155.21 1154.33 1130.21 1162C1105.21 1169.67 1075.04 1173.5 1039.71 1173.5C1004.04 1173.5 973.707 1169.67 948.707 1162C924.04 1154.33 903.707 1143.17 887.707 1128.5C872.04 1113.5 860.54 1095.17 853.207 1073.5C846.207 1051.5 842.707 1026.33 842.707 998ZM1131.71 1000.5C1131.71 986.167 1130.21 973.167 1127.21 961.5C1124.54 949.5 1119.71 939.333 1112.71 931C1105.71 922.667 1096.21 916.167 1084.21 911.5C1072.54 906.833 1057.71 904.5 1039.71 904.5C1021.71 904.5 1006.71 906.833 994.707 911.5C983.04 916.167 973.707 922.667 966.707 931C959.707 939.333 954.874 949.5 952.207 961.5C949.54 973.167 948.207 986.167 948.207 1000.5C948.207 1014.83 949.54 1028 952.207 1040C954.874 1051.67 959.707 1061.83 966.707 1070.5C973.707 1078.83 983.04 1085.5 994.707 1090.5C1006.71 1095.17 1021.71 1097.5 1039.71 1097.5C1057.71 1097.5 1072.54 1095.17 1084.21 1090.5C1096.21 1085.5 1105.71 1078.83 1112.71 1070.5C1119.71 1061.83 1124.54 1051.67 1127.21 1040C1130.21 1028 1131.71 1014.83 1131.71 1000.5ZM1449.27 823C1476.27 823 1499.27 825.5 1518.27 830.5C1537.27 835.5 1552.94 842.667 1565.27 852C1577.6 861 1587.1 871.833 1593.77 884.5C1600.77 897.167 1605.77 911.333 1608.77 927C1612.1 942.333 1613.94 958.833 1614.27 976.5C1614.6 993.833 1614.6 1011.83 1614.27 1030.5H1356.27C1357.6 1040.5 1360.1 1049.67 1363.77 1058C1367.77 1066.33 1373.27 1073.5 1380.27 1079.5C1387.6 1085.5 1396.77 1090.17 1407.77 1093.5C1419.1 1096.5 1433.1 1098 1449.77 1098C1464.1 1098 1476.1 1097.33 1485.77 1096C1495.44 1094.67 1503.94 1092.83 1511.27 1090.5C1518.6 1087.83 1525.27 1084.83 1531.27 1081.5C1537.27 1077.83 1543.77 1073.67 1550.77 1069C1554.77 1066 1558.6 1064.67 1562.27 1065C1566.27 1065.33 1569.6 1067.33 1572.27 1071L1601.27 1108.5C1605.6 1113.83 1608.27 1117.83 1609.27 1120.5C1610.27 1122.83 1607.44 1126.33 1600.77 1131C1600.1 1131.67 1599.44 1132.17 1598.77 1132.5C1587.1 1140.5 1576.1 1147.17 1565.77 1152.5C1555.77 1157.5 1545.1 1161.67 1533.77 1165C1522.44 1168 1510.1 1170.17 1496.77 1171.5C1483.44 1172.83 1467.77 1173.5 1449.77 1173.5C1409.77 1173.5 1377.1 1168.83 1351.77 1159.5C1326.77 1150.17 1307.27 1137.5 1293.27 1121.5C1279.27 1105.5 1269.6 1087 1264.27 1066C1259.27 1044.67 1256.77 1022 1256.77 998C1256.77 974.667 1259.27 952.5 1264.27 931.5C1269.6 910.167 1279.27 891.5 1293.27 875.5C1307.6 859.5 1327.27 846.833 1352.27 837.5C1377.27 827.833 1409.6 823 1449.27 823ZM1520.77 964C1520.1 954.333 1518.77 945.5 1516.77 937.5C1514.77 929.167 1511.1 922.167 1505.77 916.5C1500.77 910.5 1493.44 905.833 1483.77 902.5C1474.44 899.167 1461.77 897.5 1445.77 897.5C1429.77 897.5 1416.44 899.167 1405.77 902.5C1395.1 905.5 1386.27 909.833 1379.27 915.5C1372.27 921.167 1366.94 928.167 1363.27 936.5C1359.94 944.5 1357.6 953.667 1356.27 964H1520.77ZM1841.19 821C1867.19 821 1888.19 824.5 1904.19 831.5C1920.19 838.167 1932.52 847.833 1941.19 860.5C1950.19 872.833 1956.19 887.833 1959.19 905.5C1962.52 923.167 1964.19 942.667 1964.19 964V1094V1153V1158.5C1964.19 1162.5 1962.52 1166 1959.19 1169C1956.19 1172 1952.35 1173.5 1947.69 1173.5H1886.19C1881.52 1173.5 1877.52 1172 1874.19 1169C1871.19 1166 1869.69 1162.5 1869.69 1158.5V1153V983C1869.69 972.667 1869.02 963 1867.69 954C1866.69 945 1864.02 937.333 1859.69 931C1855.69 924.667 1849.52 919.667 1841.19 916C1832.85 912.333 1821.52 910.5 1807.19 910.5C1790.52 910.5 1777.19 912.333 1767.19 916C1757.19 919.667 1749.35 925 1743.69 932C1738.35 938.667 1734.69 946.667 1732.69 956C1731.02 965.333 1730.19 975.667 1730.19 987V1092.5V1094V1158.5C1730.19 1162.5 1728.52 1166 1725.19 1169C1722.19 1172 1718.35 1173.5 1713.69 1173.5H1651.69C1647.02 1173.5 1643.02 1172 1639.69 1169C1636.69 1166 1635.19 1162.5 1635.19 1158.5V1138V1094V901V836.5V834.5C1635.85 830.833 1637.69 827.833 1640.69 825.5C1644.02 822.833 1647.69 821.5 1651.69 821.5H1713.69C1718.35 821.5 1722.19 823 1725.19 826C1728.52 828.667 1730.19 832.167 1730.19 836.5V857.5C1734.52 852.5 1738.52 847.833 1742.19 843.5C1745.85 838.833 1751.19 835 1758.19 832C1765.52 828.667 1775.52 826 1788.19 824C1800.85 822 1818.52 821 1841.19 821Z" fill="white"/>
</svg>
